<svg width="1024" height="1024" viewBox="0 0 1024 1024" fill="none" xmlns="http://www.w3.org/2000/svg">
<g clip-path="url(#clip0_304_564)">
<rect width="1024" height="1024" rx="200" fill="url(#paint0_linear_304_564)"/>
<circle cx="226" cy="842" r="362" fill="url(#paint1_radial_304_564)"/>
<circle cx="253" cy="317" r="500" fill="url(#paint2_radial_304_564)"/>
<circle cx="874" cy="907" r="362" fill="url(#paint3_radial_304_564)"/>
<path d="M844.2 293.2H716.2V850H685.8L595.4 770L620.2 741.2V690.8C597.8 707.333 570.867 715.6 539.4 715.6C507.4 715.6 474.333 707.067 440.2 690C406.6 672.933 378.6 650 356.2 621.2C333.8 592.4 322.6 561.733 322.6 529.2C322.6 506.267 329.533 485.2 343.4 466C357.267 446.267 376.2 430.8 400.2 419.6C424.733 408.4 452.2 402.8 482.6 402.8L538.6 452.4V482.8C529 481.2 519.667 480.4 510.6 480.4C483.933 480.4 463.133 488.667 448.2 505.2C433.8 521.733 426.6 542.533 426.6 567.6C426.6 594.8 431.933 615.6 442.6 630C453.267 644.4 469.533 651.6 491.4 651.6C509 651.6 524.733 647.333 538.6 638.8C552.467 629.733 564.733 618.267 575.4 604.4C586.6 590 601.267 568.933 619.4 541.2V293.2H261L205 243.6V213.2H787.4L844.2 262.8V293.2Z" fill="white"/>
</g>
<defs>
<linearGradient id="paint0_linear_304_564" x1="782.5" y1="742.5" x2="-182.5" y2="-92" gradientUnits="userSpaceOnUse">
<stop stop-color="#4714D6"/>
<stop offset="0.831836" stop-color="#AA92F1"/>
</linearGradient>
<radialGradient id="paint1_radial_304_564" cx="0" cy="0" r="1" gradientUnits="userSpaceOnUse" gradientTransform="translate(588 857.5) rotate(161.28) scale(1620.21)">
<stop stop-color="#4714D6"/>
<stop offset="1" stop-color="white"/>
</radialGradient>
<radialGradient id="paint2_radial_304_564" cx="0" cy="0" r="1" gradientUnits="userSpaceOnUse" gradientTransform="translate(753 316.165) rotate(178.271) scale(5312.94)">
<stop stop-color="#4714D6"/>
<stop offset="1" stop-color="white"/>
</radialGradient>
<radialGradient id="paint3_radial_304_564" cx="0" cy="0" r="1" gradientUnits="userSpaceOnUse" gradientTransform="translate(1236 906.396) rotate(178.271) scale(3846.57)">
<stop stop-color="#4714D6"/>
<stop offset="1" stop-color="white"/>
</radialGradient>
<clipPath id="clip0_304_564">
<rect width="1024" height="1024" rx="200" fill="white"/>
</clipPath>
</defs>
</svg>
